
            <svg xmlns="http://www.w3.org/2000/svg">
                <filter id="grayscale">
                    <feColorMatrix type="saturate" values="0"/>
                </filter>
                <g filter="url(#grayscale)">
                    <svg xmlns="http://www.w3.org/2000/svg" viewBox="105.21000183105468 117 364.5799865722656 312.5999984741211"> <svg xmlns="http://www.w3.org/2000/svg" id="Layer_2" viewBox="0 0.002499997615814209 42.38999938964844 43.0775032043457" height="127.99999999999999" width="125.95720968632813" y="187" x="224.521" preserveAspectRatio="xMinYMin" style="overflow: visible;"><path d="M12.68,22.54c-.24,0-.47-.08-.66-.25L.34,12.02c-.22-.19-.34-.46-.34-.75s.12-.56,.34-.75L12.02,.25c.38-.33,.94-.33,1.32,0l6.42,5.64h0c1.55,1.36,2.43,3.32,2.43,5.38s-.89,4.02-2.43,5.38l-6.42,5.64c-.19,.17-.42,.25-.66,.25ZM2.51,11.27l10.17,8.94,5.76-5.06c1.11-.98,1.75-2.39,1.75-3.88s-.64-2.9-1.75-3.88L12.68,2.33,2.51,11.27Z" style="fill: #8758ff; fill-opacity: 1;"></path><path d="M12.68,43.08c-.24,0-.47-.08-.66-.25L.34,32.56c-.22-.19-.34-.46-.34-.75V11.27c0-.39,.23-.75,.59-.91,.36-.16,.78-.1,1.07,.16l18.1,15.91c1.55,1.36,2.43,3.32,2.43,5.38,0,2.06-.89,4.02-2.43,5.38l-6.42,5.64c-.19,.17-.42,.25-.66,.25ZM2,31.36l10.68,9.39,5.76-5.06c1.12-.98,1.75-2.39,1.75-3.88,0-1.48-.64-2.9-1.75-3.88L2,13.48V31.36Z" style="fill: #8758ff; fill-opacity: 1;"></path><path d="M29.71,43.08c-.24,0-.47-.08-.66-.25l-6.42-5.64c-1.55-1.36-2.43-3.32-2.43-5.38s.89-4.02,2.43-5.38l6.42-5.64c.38-.33,.94-.33,1.32,0l11.68,10.27c.22,.19,.34,.46,.34,.75s-.12,.56-.34,.75l-11.68,10.27c-.19,.17-.42,.25-.66,.25Zm0-20.21l-5.76,5.06c-1.11,.98-1.75,2.39-1.75,3.88s.64,2.9,1.75,3.88h0l5.76,5.06,10.17-8.94-10.17-8.94Z" style="fill: #8758ff; fill-opacity: 1;"></path><path d="M41.39,32.81c-.24,0-.47-.09-.66-.25l-18.1-15.92c-1.55-1.36-2.43-3.32-2.43-5.38,0-2.06,.89-4.02,2.43-5.38L29.05,.25c.38-.33,.94-.33,1.32,0l11.68,10.27c.22,.19,.34,.46,.34,.75V31.81c0,.39-.23,.75-.59,.91-.13,.06-.27,.09-.41,.09ZM29.71,2.33l-5.76,5.06c-1.11,.98-1.75,2.39-1.75,3.88,0,1.48,.64,2.9,1.75,3.88l16.44,14.46V11.72L29.71,2.33Z" style="fill: #8758ff; fill-opacity: 1;"></path></svg> <svg y="333" viewBox="3.569999933242798 10.180000305175781 224.57998657226562 26.599998474121094" x="175.21000183105468" height="26.599998474121094" width="224.57998657226562" style="overflow: visible;"><g fill="#eeeeee" fill-opacity="1" style=""><path d="M16.80 36.78L3.57 36.78L3.57 10.18L16.04 10.18Q20.82 10.18 23.33 12.07Q25.84 13.95 25.84 17.10L25.84 17.10Q25.84 19.23 24.85 20.73Q23.86 22.23 22.21 23.05Q20.56 23.86 18.62 23.86L18.62 23.86L19.30 22.50Q21.55 22.50 23.33 23.31Q25.12 24.13 26.16 25.69Q27.21 27.25 27.21 29.56L27.21 29.56Q27.21 32.98 24.59 34.88Q21.96 36.78 16.80 36.78L16.80 36.78ZM8.51 14.06L8.51 32.91L16.49 32.91Q19.27 32.91 20.75 32.00Q22.23 31.08 22.23 29.07L22.23 29.07Q22.23 27.09 20.75 26.16Q19.27 25.23 16.49 25.23L16.49 25.23L8.13 25.23L8.13 21.39L15.50 21.39Q18.09 21.39 19.47 20.48Q20.86 19.57 20.86 17.75L20.86 17.75Q20.86 15.88 19.47 14.97Q18.09 14.06 15.50 14.06L15.50 14.06L8.51 14.06ZM49.59 36.78L44.65 36.78L44.65 10.18L55.56 10.18Q60.88 10.18 63.90 12.69Q66.92 15.20 66.92 19.65L66.92 19.65Q66.92 22.57 65.55 24.68Q64.18 26.79 61.66 27.91Q59.13 29.03 55.59 29.03L55.59 29.03L47.39 29.03L49.59 26.79L49.59 36.78ZM67.37 36.78L62.05 36.78L55.33 27.13L60.61 27.13L67.37 36.78ZM49.59 11.93L49.59 27.32L47.39 24.97L55.37 24.97Q58.63 24.97 60.29 23.56Q61.94 22.15 61.94 19.65L61.94 19.65Q61.94 17.10 60.29 15.73Q58.63 14.36 55.37 14.36L55.37 14.36L47.39 14.36L49.59 11.93ZM85.92 36.78L80.83 36.78L92.80 10.18L97.66 10.18L109.67 36.78L104.50 36.78L94.20 12.81L96.18 12.81L85.92 36.78ZM103.36 30.63L86.34 30.63L87.67 26.75L102.03 26.75L103.36 30.63ZM137.94 36.78L133.08 36.78L121.45 10.18L126.81 10.18L137.18 34.24L134.10 34.24L144.59 10.18L149.53 10.18L137.94 36.78ZM166.40 36.78L161.31 36.78L173.28 10.18L178.14 10.18L190.15 36.78L184.98 36.78L174.69 12.81L176.66 12.81L166.40 36.78ZM183.84 30.63L166.82 30.63L168.15 26.75L182.51 26.75L183.84 30.63ZM208.09 36.78L202.46 36.78L213.67 21.36L213.67 25.08L203.00 10.18L208.58 10.18L216.52 21.20L214.24 21.24L222.11 10.18L227.47 10.18L216.87 24.81L216.87 21.24L228.15 36.78L222.45 36.78L214.09 25.08L216.33 25.08L208.09 36.78Z" transform="translate(0, 0)"></path></g></svg></svg>
                </g>
            </svg>
        